<?xml version="1.0" encoding="utf-8"?>
<!-- Generator: Adobe Illustrator 26.0.1, SVG Export Plug-In . SVG Version: 6.00 Build 0)  -->
<svg version="1.1" xmlns="http://www.w3.org/2000/svg" xmlns:xlink="http://www.w3.org/1999/xlink" x="0px" y="0px"
	 viewBox="0 0 856 266.1" style="enable-background:new 0 0 856 266.1;" xml:space="preserve">
<style type="text/css">
	.st0{display:none;}
	.st1{fill:#F01012;}
</style>
<g id="Guides" class="st0">
</g>
<g id="Layer_5">
	<path d="M383.6,80.1c-3.3,0-6.4,0.5-9.4,1.4c0.4,0.1,0.8,0.2,1.2,0.4l2.1,1.2l34.1,19.7l3.5,2C411.7,90.7,398.9,80.1,383.6,80.1z
		 M412.4,118.6l-37,21.4c-2.2,1.3-5.1-0.3-5.1-2.9V84.8c0-0.9,0.3-1.7,0.9-2.2c-11.7,4.9-19.9,16.4-19.9,29.9
		c0,17.9,14.5,32.4,32.4,32.4c16.4,0,30-12.2,32.1-28.1L412.4,118.6z"/>
</g>
<g id="Layer_2">
	<g>
		<path d="M109.4,116.3c8.5-5.1,15.1-11.8,19.9-20.1c4.7-8.3,7.1-17.5,7.1-27.8c0-17.7-5.9-32.1-17.7-43.2
			C106.8,14,91.7,8.4,73.4,8.4H0v41.5h67.9c6.4,0,11.4,1.7,15.1,5.1c3.7,3.4,5.5,7.9,5.5,13.3c0,5.4-1.8,9.9-5.5,13.3
			c-3.7,3.4-8.7,5.1-15.1,5.1H0v91.1h46.7V126h16.9L91,177.8h52.1L109.4,116.3z"/>
		<path d="M292.9,111.3c0-9.5-1.8-18.4-5.3-26.8c-3.5-8.4-8.4-15.7-14.5-21.8c-6.2-6.1-13.7-10.9-22.6-14.5
			c-8.9-3.5-18.5-5.3-28.8-5.3c-20.5,0-37.4,6.6-50.9,19.7c-13.4,13.2-20.1,29.7-20.1,49.7c0,13.2,3.1,25.1,9.2,35.7
			c6.1,10.6,14.6,19,25.5,25c10.8,6,22.9,9,36.3,9c16.4,0,30.7-4.4,43.1-13.1c12.3-8.7,20.8-20.5,25.4-35.4h-44.8
			c-2.2,3.9-5.4,6.9-9.5,9c-4.1,2.2-8.8,3.2-14.1,3.2c-7.2,0-13-1.9-17.6-5.8s-7.6-9.5-9.1-17h53.6h43.5
			C292.6,119.3,292.9,115.4,292.9,111.3z M195.8,98.2c1.8-6.5,4.9-11.5,9.4-14.9c4.5-3.4,9.9-5.1,16.5-5.1c14,0,22.9,6.7,26.9,20.1
			H195.8z"/>
		<path d="M438.9,62.4c-12.8-13-29.3-19.5-49.3-19.5c-15.4,0-28.8,4.9-40,14.7l-5.7-10.4h-30.6V225h44.4v-51.4
			c9.5,5.7,20.2,8.6,31.9,8.6c13.2,0,25-2.9,35.4-8.9c10.4-5.9,18.6-14.2,24.4-24.8c5.8-10.6,8.7-22.7,8.7-36
			C458.2,92.2,451.8,75.5,438.9,62.4z M420.6,113.9l-4.9,2.8l-3.3,1.9c-1,5.9-3.7,11-7.8,15.2c-5.6,5.7-12.5,8.5-21,8.5
			c-8.4,0-15.4-2.8-21-8.5c-5.5-5.7-8.3-12.8-8.3-21.4c0-8.6,2.8-15.7,8.3-21.4c2.3-2.4,4.9-4.2,7.7-5.6v-0.7c0-0.9,0.3-1.7,0.9-2.2
			c0.7-0.8,1.9-1.3,3-1.1c0.4,0.1,0.8,0.2,1.2,0.4l2.1,1.2c2-0.4,4-0.5,6.1-0.5c8.4,0,15.4,2.8,21,8.5c3.3,3.4,5.6,7.3,7,11.7l3.5,2
			l5.6,3.2C422.9,109.3,422.9,112.6,420.6,113.9z"/>
		<path d="M478.8,0v177.8h45V0H478.8z"/>
		<path d="M657.5,47l-4.6,10c-11.3-9.3-24.6-13.9-39.9-13.9c-20,0-36.4,6.5-49.3,19.4c-12.8,13-19.3,29.6-19.3,49.8
			c0,13.4,2.9,25.4,8.8,36c5.8,10.6,14,18.9,24.4,24.8c10.4,6,22.2,8.9,35.4,8.9c15.1,0,28.2-4.5,39.5-13.6l3.9,9.2h34.7V47H657.5z
			 M640,133.8c-5.5,5.7-12.5,8.5-21,8.5c-8.4,0-15.4-2.8-20.9-8.5c-5.5-5.7-8.3-12.8-8.3-21.3c0-8.6,2.8-15.7,8.3-21.3
			c5.5-5.6,12.5-8.5,20.9-8.5c8.4,0,15.4,2.8,21,8.5c5.6,5.7,8.3,12.8,8.3,21.3C648.3,121,645.5,128.1,640,133.8z"/>
		<path d="M807.7,47.1l-25.9,72l-27.8-72h-48.8l54,119.9c-3.1,8.3-33.6,40.8-37.3,43.5c-3.7,2.8-9.8,4.1-18.3,4.1H530.7v38.8h176
			c11.3,0,21-1.8,28.8-5.4c7.9-3.6,14.8-9.3,20.7-17s38.9-45.4,45-59.1L856,47.1H807.7z"/>
	</g>
</g>
<g id="Layer_6">
</g>
<g id="Layer_4">
	<path class="st1" d="M480.4,237.1l45.2,26.1c2.2,1.3,5.1-0.3,5.1-2.9V208c0-2.6-2.8-4.2-5.1-2.9l-45.2,26.1
		C478.2,232.5,478.2,235.8,480.4,237.1z"/>
</g>
<g id="Layer_3">
</g>
</svg>
