<svg xmlns="http://www.w3.org/2000/svg" viewBox="0 0 856.03 263.65"><defs><style>.cls-1{fill:#fff;}.cls-2{fill:#f01012;}</style></defs><g id="Layer_5" data-name="Layer 5"><path class="cls-1" d="M383.65,80.12a32.59,32.59,0,0,0-9.43,1.39,3.28,3.28,0,0,1,1.17.41l2.11,1.22,34.1,19.69,3.49,2A32.34,32.34,0,0,0,383.65,80.12Zm28.79,38.5L375.39,140a3.36,3.36,0,0,1-5.05-2.91V84.84a3.28,3.28,0,0,1,.86-2.24,32.36,32.36,0,1,0,44.52,34.12Z"/></g><g id="Layer_2" data-name="Layer 2"><path class="cls-1" d="M109.41,116.26a54.37,54.37,0,0,0,26.94-47.85q0-26.47-17.73-43.25T73.37,8.38H0V49.86H67.93Q77.51,49.86,83,55a17.36,17.36,0,0,1,5.49,13.29A17.39,17.39,0,0,1,83,81.58q-5.49,5.15-15.07,5.14H0v91.1H46.67V126H63.56L91,177.82h52.1Z"/><path class="cls-1" d="M292.9,111.3a69,69,0,0,0-5.26-26.82,65.6,65.6,0,0,0-14.53-21.8A67.06,67.06,0,0,0,250.48,48.2a77.29,77.29,0,0,0-28.83-5.31q-30.72,0-50.86,19.73t-20.15,49.74A70,70,0,0,0,159.86,148a65.68,65.68,0,0,0,25.46,25,73.4,73.4,0,0,0,36.33,9q24.58,0,43.07-13a65.61,65.61,0,0,0,25.35-35.39H245.29a23,23,0,0,1-9.52,9,30,30,0,0,1-14.12,3.25q-10.74,0-17.6-5.79t-9.1-17h97.12A82,82,0,0,0,292.9,111.3ZM195.78,98.18q2.72-9.8,9.39-14.94t16.48-5.14q20.92,0,26.94,20.08Z"/><path class="cls-1" d="M438.94,62.44q-19.26-19.56-49.27-19.55-23.16,0-40.05,14.65l-5.68-10.4h-30.6V225h44.43V173.57a60.63,60.63,0,0,0,31.9,8.62q19.72,0,35.39-8.86a62.49,62.49,0,0,0,24.4-24.81q8.73-16,8.74-36Q458.2,82,438.94,62.44Zm-18.3,51.44-4.92,2.84-3.28,1.9a28.34,28.34,0,0,1-7.82,15.24q-8.34,8.52-21,8.51t-21-8.51q-8.32-8.51-8.33-21.38t8.33-21.39a27.63,27.63,0,0,1,7.67-5.59v-.66a3.28,3.28,0,0,1,.86-2.24,3.37,3.37,0,0,1,3-1.09,3.28,3.28,0,0,1,1.17.41l2.11,1.22a32.92,32.92,0,0,1,6.14-.55q12.64,0,21,8.5a28.09,28.09,0,0,1,7,11.74l3.49,2,5.55,3.2A3.37,3.37,0,0,1,420.64,113.88Z"/><path class="cls-1" d="M478.76,0V177.82h45V0Z"/><path class="cls-1" d="M657.53,47l-4.61,10Q636,43.13,613,43.12q-30,0-49.27,19.44t-19.26,49.8q0,20.08,8.75,36a62.92,62.92,0,0,0,24.39,24.81q15.66,8.92,35.39,8.92,22.57,0,39.47-13.58l3.89,9.21h34.74V47ZM640,133.75q-8.33,8.5-21,8.5t-20.92-8.5q-8.26-8.52-8.27-21.27t8.27-21.33Q606.37,82.7,619,82.7t21,8.51q8.32,8.51,8.33,21.27T640,133.75Z"/><path class="cls-1" d="M807.7,47.14l-25.87,72-27.77-72h-48.8l54,119.93c-3.15,8.27-33.56,40.76-37.26,43.52s-9.81,4.13-18.31,4.13h-173v38.76h176q17,0,28.83-5.44a55.61,55.61,0,0,0,20.73-16.95c5.95-7.68,38.94-45.35,45-59.06L856,47.14Z"/></g><g id="Layer_4" data-name="Layer 4"><path class="cls-2" d="M480.44,237.07l45.25,26.12a3.36,3.36,0,0,0,5-2.92V208a3.37,3.37,0,0,0-5-2.92l-45.25,26.12A3.38,3.38,0,0,0,480.44,237.07Z"/></g></svg>